{
	"asset":{
		"generator":"Khronos glTF Blender I/O v4.0.44",
		"version":"2.0"
	},
	"scene":0,
	"scenes":[
		{
			"name":"Scene",
			"nodes":[
				0,
				1,
				2,
				3,
				4,
				5,
				6
			]
		}
	],
	"nodes":[
		{
			"mesh":0,
			"name":"Right Arm",
			"rotation":[
				0.9953634142875671,
				0,
				0,
				0.09618588536977768
			],
			"scale":[
				-0.19121843576431274,
				-0.19121843576431274,
				-0.19121843576431274
			],
			"translation":[
				-0.5188107490539551,
				3.3492207527160645,
				0.08937640488147736
			]
		},
		{
			"mesh":1,
			"name":"Left Arm",
			"rotation":[
				-0.09618588536977768,
				0,
				0,
				0.9953634142875671
			],
			"scale":[
				0.19121843576431274,
				0.19121845066547394,
				0.19121845066547394
			],
			"translation":[
				0.4744941294193268,
				3.3492207527160645,
				0.08937640488147736
			]
		},
		{
			"mesh":2,
			"name":"Right Leg",
			"rotation":[
				0.17916350066661835,
				-0.6964064240455627,
				-0.016701476648449898,
				0.6947227120399475
			],
			"scale":[
				-0.23192976415157318,
				-0.20567360520362854,
				-0.23265480995178223
			],
			"translation":[
				-0.28637951612472534,
				2.6623647212982178,
				0.14237213134765625
			]
		},
		{
			"mesh":3,
			"name":"Left Leg",
			"rotation":[
				-0.7189192175865173,
				0.015380545519292355,
				0.6644511818885803,
				0.20352716743946075
			],
			"scale":[
				0.23232290148735046,
				0.2068699598312378,
				0.23119734227657318
			],
			"translation":[
				0.3171777129173279,
				2.6362218856811523,
				0.14237213134765625
			]
		},
		{
			"mesh":4,
			"name":"Body",
			"rotation":[
				0.11040052026510239,
				0,
				0,
				0.993887186050415
			],
			"scale":[
				0.3569163382053375,
				0.3234667181968689,
				0.3709242045879364
			],
			"translation":[
				0,
				3.9107542037963867,
				0.03909321129322052
			]
		},
		{
			"mesh":5,
			"name":"Eye",
			"rotation":[
				0.09272207319736481,
				0,
				0,
				0.9956921339035034
			],
			"scale":[
				0.09815075248479843,
				0.09815075248479843,
				0.09815075248479843
			],
			"translation":[
				0.25788992643356323,
				4.778608322143555,
				0.6416196227073669
			]
		},
		{
			"mesh":6,
			"name":"Head",
			"scale":[
				0.8952648043632507,
				0.985029935836792,
				1
			],
			"translation":[
				0,
				4.773712158203125,
				0
			]
		}
	],
	"materials":[
		{
			"doubleSided":true,
			"name":"R.Arm",
			"pbrMetallicRoughness":{}
		},
		{
			"doubleSided":true,
			"name":"L Arm",
			"pbrMetallicRoughness":{}
		},
		{
			"doubleSided":true,
			"name":"Legs",
			"pbrMetallicRoughness":{}
		},
		{
			"doubleSided":true,
			"name":"Body",
			"pbrMetallicRoughness":{}
		},
		{
			"doubleSided":true,
			"name":"Eye",
			"pbrMetallicRoughness":{}
		},
		{
			"doubleSided":true,
			"name":"Head",
			"pbrMetallicRoughness":{}
		}
	],
	"meshes":[
		{
			"name":"Cylinder.002",
			"primitives":[
				{
					"attributes":{
						"POSITION":0,
						"NORMAL":1,
						"TEXCOORD_0":2
					},
					"indices":3,
					"material":0
				}
			]
		},
		{
			"name":"Cylinder.001",
			"primitives":[
				{
					"attributes":{
						"POSITION":4,
						"NORMAL":5,
						"TEXCOORD_0":6
					},
					"indices":7,
					"material":1
				}
			]
		},
		{
			"name":"Sphere.008",
			"primitives":[
				{
					"attributes":{
						"POSITION":8,
						"NORMAL":9,
						"TEXCOORD_0":10
					},
					"indices":11,
					"material":2
				}
			]
		},
		{
			"name":"Sphere.003",
			"primitives":[
				{
					"attributes":{
						"POSITION":12,
						"NORMAL":13,
						"TEXCOORD_0":14
					},
					"indices":15,
					"material":2
				}
			]
		},
		{
			"name":"Circle.001",
			"primitives":[
				{
					"attributes":{
						"POSITION":16,
						"NORMAL":17,
						"TEXCOORD_0":18
					},
					"indices":19,
					"material":3
				}
			]
		},
		{
			"name":"Sphere.004",
			"primitives":[
				{
					"attributes":{
						"POSITION":20,
						"NORMAL":21,
						"TEXCOORD_0":22
					},
					"indices":23,
					"material":4
				}
			]
		},
		{
			"name":"Sphere",
			"primitives":[
				{
					"attributes":{
						"POSITION":24,
						"NORMAL":25,
						"TEXCOORD_0":26
					},
					"indices":27,
					"material":5
				}
			]
		}
	],
	"accessors":[
		{
			"bufferView":0,
			"componentType":5126,
			"count":2428,
			"max":[
				2.681354284286499,
				2.3204190731048584,
				1.458473563194275
			],
			"min":[
				-1.3603482246398926,
				-2.457064628601074,
				-0.924168586730957
			],
			"type":"VEC3"
		},
		{
			"bufferView":1,
			"componentType":5126,
			"count":2428,
			"type":"VEC3"
		},
		{
			"bufferView":2,
			"componentType":5126,
			"count":2428,
			"type":"VEC2"
		},
		{
			"bufferView":3,
			"componentType":5123,
			"count":4128,
			"type":"SCALAR"
		},
		{
			"bufferView":4,
			"componentType":5126,
			"count":5622,
			"max":[
				3.526799201965332,
				2.3204190731048584,
				2.6672465801239014
			],
			"min":[
				-1.3603482246398926,
				-4.818703651428223,
				-0.924168586730957
			],
			"type":"VEC3"
		},
		{
			"bufferView":5,
			"componentType":5126,
			"count":5622,
			"type":"VEC3"
		},
		{
			"bufferView":6,
			"componentType":5126,
			"count":5622,
			"type":"VEC2"
		},
		{
			"bufferView":7,
			"componentType":5123,
			"count":8862,
			"type":"SCALAR"
		},
		{
			"bufferView":8,
			"componentType":5126,
			"count":1751,
			"max":[
				1.5893340110778809,
				6.138687610626221,
				0.8429477214813232
			],
			"min":[
				-1.401681900024414,
				-0.8430776596069336,
				-2.407679796218872
			],
			"type":"VEC3"
		},
		{
			"bufferView":9,
			"componentType":5126,
			"count":1751,
			"type":"VEC3"
		},
		{
			"bufferView":10,
			"componentType":5126,
			"count":1751,
			"type":"VEC2"
		},
		{
			"bufferView":11,
			"componentType":5123,
			"count":9426,
			"type":"SCALAR"
		},
		{
			"bufferView":12,
			"componentType":5126,
			"count":1751,
			"max":[
				1.5893340110778809,
				6.138687610626221,
				0.8429477214813232
			],
			"min":[
				-1.401681900024414,
				-0.8430776596069336,
				-2.407679796218872
			],
			"type":"VEC3"
		},
		{
			"bufferView":13,
			"componentType":5126,
			"count":1751,
			"type":"VEC3"
		},
		{
			"bufferView":14,
			"componentType":5126,
			"count":1751,
			"type":"VEC2"
		},
		{
			"bufferView":15,
			"componentType":5123,
			"count":9426,
			"type":"SCALAR"
		},
		{
			"bufferView":16,
			"componentType":5126,
			"count":1056,
			"max":[
				1.4858574867248535,
				0.09168308228254318,
				2.35754656791687
			],
			"min":[
				-1.4858574867248535,
				-5.206831455230713,
				-1.1030741930007935
			],
			"type":"VEC3"
		},
		{
			"bufferView":17,
			"componentType":5126,
			"count":1056,
			"type":"VEC3"
		},
		{
			"bufferView":18,
			"componentType":5126,
			"count":1056,
			"type":"VEC2"
		},
		{
			"bufferView":19,
			"componentType":5123,
			"count":5610,
			"type":"SCALAR"
		},
		{
			"bufferView":20,
			"componentType":5126,
			"count":1984,
			"max":[
				1.0000003576278687,
				1.0000001192092896,
				0.8175022006034851
			],
			"min":[
				-1,
				-0.9999999403953552,
				-1.0000001192092896
			],
			"type":"VEC3"
		},
		{
			"bufferView":21,
			"componentType":5126,
			"count":1984,
			"type":"VEC3"
		},
		{
			"bufferView":22,
			"componentType":5126,
			"count":1984,
			"type":"VEC2"
		},
		{
			"bufferView":23,
			"componentType":5123,
			"count":2880,
			"type":"SCALAR"
		},
		{
			"bufferView":24,
			"componentType":5126,
			"count":2414,
			"max":[
				0.7381590008735657,
				0.9897013902664185,
				0.8405794501304626
			],
			"min":[
				-0.7381590008735657,
				-1.1117844581604004,
				-0.7599548101425171
			],
			"type":"VEC3"
		},
		{
			"bufferView":25,
			"componentType":5126,
			"count":2414,
			"type":"VEC3"
		},
		{
			"bufferView":26,
			"componentType":5126,
			"count":2414,
			"type":"VEC2"
		},
		{
			"bufferView":27,
			"componentType":5123,
			"count":13497,
			"type":"SCALAR"
		}
	],
	"bufferViews":[
		{
			"buffer":0,
			"byteLength":29136,
			"byteOffset":0,
			"target":34962
		},
		{
			"buffer":0,
			"byteLength":29136,
			"byteOffset":29136,
			"target":34962
		},
		{
			"buffer":0,
			"byteLength":19424,
			"byteOffset":58272,
			"target":34962
		},
		{
			"buffer":0,
			"byteLength":8256,
			"byteOffset":77696,
			"target":34963
		},
		{
			"buffer":0,
			"byteLength":67464,
			"byteOffset":85952,
			"target":34962
		},
		{
			"buffer":0,
			"byteLength":67464,
			"byteOffset":153416,
			"target":34962
		},
		{
			"buffer":0,
			"byteLength":44976,
			"byteOffset":220880,
			"target":34962
		},
		{
			"buffer":0,
			"byteLength":17724,
			"byteOffset":265856,
			"target":34963
		},
		{
			"buffer":0,
			"byteLength":21012,
			"byteOffset":283580,
			"target":34962
		},
		{
			"buffer":0,
			"byteLength":21012,
			"byteOffset":304592,
			"target":34962
		},
		{
			"buffer":0,
			"byteLength":14008,
			"byteOffset":325604,
			"target":34962
		},
		{
			"buffer":0,
			"byteLength":18852,
			"byteOffset":339612,
			"target":34963
		},
		{
			"buffer":0,
			"byteLength":21012,
			"byteOffset":358464,
			"target":34962
		},
		{
			"buffer":0,
			"byteLength":21012,
			"byteOffset":379476,
			"target":34962
		},
		{
			"buffer":0,
			"byteLength":14008,
			"byteOffset":400488,
			"target":34962
		},
		{
			"buffer":0,
			"byteLength":18852,
			"byteOffset":414496,
			"target":34963
		},
		{
			"buffer":0,
			"byteLength":12672,
			"byteOffset":433348,
			"target":34962
		},
		{
			"buffer":0,
			"byteLength":12672,
			"byteOffset":446020,
			"target":34962
		},
		{
			"buffer":0,
			"byteLength":8448,
			"byteOffset":458692,
			"target":34962
		},
		{
			"buffer":0,
			"byteLength":11220,
			"byteOffset":467140,
			"target":34963
		},
		{
			"buffer":0,
			"byteLength":23808,
			"byteOffset":478360,
			"target":34962
		},
		{
			"buffer":0,
			"byteLength":23808,
			"byteOffset":502168,
			"target":34962
		},
		{
			"buffer":0,
			"byteLength":15872,
			"byteOffset":525976,
			"target":34962
		},
		{
			"buffer":0,
			"byteLength":5760,
			"byteOffset":541848,
			"target":34963
		},
		{
			"buffer":0,
			"byteLength":28968,
			"byteOffset":547608,
			"target":34962
		},
		{
			"buffer":0,
			"byteLength":28968,
			"byteOffset":576576,
			"target":34962
		},
		{
			"buffer":0,
			"byteLength":19312,
			"byteOffset":605544,
			"target":34962
		},
		{
			"buffer":0,
			"byteLength":26994,
			"byteOffset":624856,
			"target":34963
		}
	],
	"buffers":[
		{
			"byteLength":651852,
			"uri":"creepy_doll.bin"
		}
	]
}
